<?xml version="1.0" encoding="UTF-8" standalone="no"?>
<svg
   xmlns:dc="http://purl.org/dc/elements/1.1/"
   xmlns:cc="http://creativecommons.org/ns#"
   xmlns:rdf="http://www.w3.org/1999/02/22-rdf-syntax-ns#"
   xmlns:svg="http://www.w3.org/2000/svg"
   xmlns="http://www.w3.org/2000/svg"
   xmlns:sodipodi="http://sodipodi.sourceforge.net/DTD/sodipodi-0.dtd"
   xmlns:inkscape="http://www.inkscape.org/namespaces/inkscape"
   height="512px"
   id="Layer_1"
   style="enable-background:new 0 0 512 512;"
   version="1.1"
   viewBox="0 0 512 512"
   width="512px"
   xml:space="preserve"
   sodipodi:docname="delete.svg"
   inkscape:version="0.92.1 r15371"><metadata
     id="metadata9"><rdf:RDF><cc:Work
         rdf:about=""><dc:format>image/svg+xml</dc:format><dc:type
           rdf:resource="http://purl.org/dc/dcmitype/StillImage" /></cc:Work></rdf:RDF></metadata><defs
     id="defs7" /><sodipodi:namedview
     pagecolor="#ffffff"
     bordercolor="#666666"
     borderopacity="1"
     objecttolerance="10"
     gridtolerance="10"
     guidetolerance="10"
     inkscape:pageopacity="0"
     inkscape:pageshadow="2"
     inkscape:window-width="1920"
     inkscape:window-height="1017"
     id="namedview5"
     showgrid="false"
     inkscape:zoom="0.8"
     inkscape:cx="256"
     inkscape:cy="256"
     inkscape:window-x="-8"
     inkscape:window-y="-8"
     inkscape:window-maximized="1"
     inkscape:current-layer="Layer_1" /><path
     d="M 378.64539,87.998588 V 49.898327 c 0,-25.093619 -20.89367,-45.9830728 -49.71252,-45.9830728 H 183.25355 c -28.67476,0 -49.56842,20.8894538 -49.56842,45.9830728 V 87.998588 H 2.559322 v 42.041662 h 13.256673 c 0,0 7.781092,0.78828 11.815732,4.46693 4.03464,3.67865 5.619676,11.82421 5.619676,11.82421 l 27.377913,317.54597 c 2.161414,38.62579 2.161414,44.53789 51.873944,44.53789 h 287.32398 c 49.71254,0 49.71254,-5.78073 51.87395,-44.40651 l 27.37792,-317.41458 c 0,0 1.58504,-8.27696 5.61968,-11.9556 4.03463,-3.67864 11.81572,-4.46692 11.81572,-4.46692 h 13.25668 V 88.129968 H 378.64539 Z M 163.94491,49.898327 c 0,-12.6125 11.23937,-19.707032 25.5047,-19.707032 h 132.13445 c 14.26533,0 26.80154,7.225912 26.80154,19.707032 V 87.998588 H 163.94491 Z m -12.24801,374.433593 -14.84171,-252.25 h 29.25113 l 15.12991,252.25 z m 120.46281,0 h -31.70074 v -252.25 h 31.70074 z m 88.76208,0 h -29.39523 l 15.12989,-252.25 h 29.25115 z"
     id="path2"
     inkscape:connector-curvature="0"
     style="stroke-width:1.37590468" /></svg>